PathFileType	3	(X/Y/Z)	results
DataRate	CameraRate	NumFrames	NumMarkers	Units	OrigDataRate	OrigDataStartFrame	OrigNumFrames
30.0	30.0	4	85	mm	30.0	323	369
Frame#	Time	head			nose			neck			shoulder_r			elbow_r			wrist_r			shoulder_l			elbow_l			wrist_l			hip_r			knee_r			ankle_r			hip_l			knee_l			ankle_l			heel_r			heel_l			mtoe_r			ltoe_r			mtoe_l			ltoe_l			asis_l			asis_r			psi_r			psi_l			mhnd_r			lhnd_r			mhnd_l			lhnd_l			l_lat_knee			r_med_wrist			l_lat_ankle			r_med_ankle			r_lat_knee			xiphoid			l_med_ankle			r_med_knee			l_med_elbow			navel			r_lat_elbow			r_lat_wrist			l_med_wrist			l_lat_elbow			l_med_knee			r_med_elbow			r_lat_ankle			l_lat_wrist			chin			T10			r_eye			l_eye			l_ear			r_ear			spinal_cord_8			spinal_cord_12			spinal_cord_27			spinal_cord_33			up_arm_r_0			up_arm_r_5			up_arm_l_0			up_arm_l_5			front_torso_11			front_torso_7			front_torso_4			front_torso_1			front_torso_10			thigh_r_2			thigh_r_3			thigh_l_1			thigh_l_5			shank_l_0			shank_l_4			shank_r_1			shank_r_2			foot_r_1			foot_r_3			foot_r_5			foot_r_6			foot_r_7			foot_l_1			foot_l_7			foot_l_0			foot_l_4			foot_l_5			foot_l_6			
		X1	Y1	Z1	X2	Y2	Z2	X3	Y3	Z3	X4	Y4	Z4	X5	Y5	Z5	X6	Y6	Z6	X7	Y7	Z7	X8	Y8	Z8	X9	Y9	Z9	X10	Y10	Z10	X11	Y11	Z11	X12	Y12	Z12	X13	Y13	Z13	X14	Y14	Z14	X15	Y15	Z15	X16	Y16	Z16	X17	Y17	Z17	X18	Y18	Z18	X19	Y19	Z19	X20	Y20	Z20	X21	Y21	Z21	X22	Y22	Z22	X23	Y23	Z23	X24	Y24	Z24	X25	Y25	Z25	X26	Y26	Z26	X27	Y27	Z27	X28	Y28	Z28	X29	Y29	Z29	X30	Y30	Z30	X31	Y31	Z31	X32	Y32	Z32	X33	Y33	Z33	X34	Y34	Z34	X35	Y35	Z35	X36	Y36	Z36	X37	Y37	Z37	X38	Y38	Z38	X39	Y39	Z39	X40	Y40	Z40	X41	Y41	Z41	X42	Y42	Z42	X43	Y43	Z43	X44	Y44	Z44	X45	Y45	Z45	X46	Y46	Z46	X47	Y47	Z47	X48	Y48	Z48	X49	Y49	Z49	X50	Y50	Z50	X51	Y51	Z51	X52	Y52	Z52	X53	Y53	Z53	X54	Y54	Z54	X55	Y55	Z55	X56	Y56	Z56	X57	Y57	Z57	X58	Y58	Z58	X59	Y59	Z59	X60	Y60	Z60	X61	Y61	Z61	X62	Y62	Z62	X63	Y63	Z63	X64	Y64	Z64	X65	Y65	Z65	X66	Y66	Z66	X67	Y67	Z67	X68	Y68	Z68	X69	Y69	Z69	X70	Y70	Z70	X71	Y71	Z71	X72	Y72	Z72	X73	Y73	Z73	X74	Y74	Z74	X75	Y75	Z75	X76	Y76	Z76	X77	Y77	Z77	X78	Y78	Z78	X79	Y79	Z79	X80	Y80	Z80	X81	Y81	Z81	X82	Y82	Z82	X83	Y83	Z83	X84	Y84	Z84	X85	Y85	Z85	
323	10.766666666666666	70.86944327921857	1672.0998758782243	-260.93053969563556	34.86416634803744	1503.0912017522269	-388.4504984580293	61.09637014432392	1353.0009613549028	-256.5655940270144	212.35671222192693	1325.0850756780626	-271.7890490811543	248.28786646803633	1125.4042126935406	-438.495296491599	107.15196181637022	1305.1177594290486	-469.41704762659776	-70.0296532026804	1309.2968085764826	-272.3139734509601	-126.23400841781324	1125.89948981895	-426.39673191698955	-9.331065730907584	1301.2862602357682	-480.38350763122713	157.87140234601256	869.3884453580513	-158.49148416034626	181.28773447476854	477.2866983140038	-247.29987307750366	214.62786404060932	108.10879086151276	-169.4597101336135	-30.368868299164408	856.2058054938684	-148.43496996861367	-73.71021605619268	472.83349120958314	-250.31476230256266	-96.33813135444315	102.64574910520385	-166.61232518708542	212.5288479445521	53.53174088238284	-145.08633703097567	-102.40708608299492	40.884817611635484	-134.6808517450252	247.29914319556036	31.050403269020727	-360.61616332706154	301.0374499631432	39.271190365235064	-292.764530976349	-111.7930911938552	39.039044645834906	-359.9280348058933	-186.44926724438494	29.813430418783273	-297.87206139958494	-78.37576137014912	901.6239771059836	-198.57530930119424	197.58284021078725	918.9387072286338	-209.63043205039645	107.47351025195236	963.8766395284954	-88.89428521259072	13.432502312007294	955.5533402578122	-88.92826565288675	51.92308876314672	1341.8107434790927	-500.80309989885654	67.29807439864075	1382.3499254347375	-469.35112384294086	35.676914454698135	1344.8178251870802	-523.9024847935182	31.525855242937382	1379.5129897179825	-483.47029972640223	-123.70164500494221	473.5710982031897	-246.00799548324522	104.70851122565605	1287.778886550654	-492.54830236686047	-148.15802966259412	93.3076178976448	-155.14313077757816	182.40571759166423	93.25812454711286	-181.1945029305793	225.1904659952192	469.9224695670211	-241.95010413592422	58.69663756124336	1169.7565690544789	-313.9383157106761	-68.97415800384586	86.50247460470368	-179.71176613937087	139.2433378513878	472.47350403571716	-256.80103295992683	-104.75088035937078	1111.7903665732204	-404.3964428494463	54.84771948829991	954.9080213307191	-283.5706265483146	273.9594632067444	1151.8841204880248	-454.36055959542654	116.2042782816628	1308.0838176801813	-438.8755497657996	-17.49091049774851	1287.3394319018694	-505.9809532521259	-153.30285153488464	1151.4399213039976	-430.5179270200099	-29.396928427405683	475.0556693489545	-272.47982337093134	223.55793243832645	1109.9083738457548	-415.7351299444648	262.0745919344101	94.51988979581266	-167.71720009393576	-19.431955470601615	1307.5128109845582	-453.7724048254144	41.27310062652658	1425.732574999863	-374.1001504233532	65.01244892846016	1220.4276086613183	-127.19723333341636	66.73301528592701	1535.580497494334	-395.6258679243729	-0.09987456119561755	1533.7156593020002	-375.86698281727547	-21.51351378605258	1521.8597956590027	-262.6981385557535	145.01383553177348	1523.2105205539112	-309.40055194898775	62.78193788051499	1420.1983781708288	-221.37046391380827	63.24393335801617	1317.27819689144	-147.57416652813055	74.8132088576274	1070.4559546156352	-112.03566037387827	64.4547223240847	1208.4606396989882	-137.81616658868833	207.64192572036222	1250.0244884400083	-387.1944608359511	266.60727998371823	1194.6490872891168	-350.80164830376117	-104.934137726004	1284.8270333476557	-309.6917865954138	-96.82244253771249	1151.059834244138	-357.588841121375	100.17249943841921	989.4728281923857	-252.43289134092169	58.33717611404931	1079.4111133905033	-325.85017411412076	-0.13351333512418018	1212.8828360126213	-326.9137150274319	-6.941432019970106	1022.0809716967793	-260.01865373093545	131.30400694814585	1249.9549566054409	-347.096785173849	152.4459521981347	656.6811396002411	-209.8912066740526	252.05773776551806	622.620783295994	-201.18216425318272	-13.103262033472598	579.8170199277974	-224.6920826953218	-144.52726392091895	765.209581765815	-183.37927666523677	-157.44296678238828	195.456463406033	-190.18105496027982	-35.88896365838548	324.96611944079046	-226.66930684153067	252.26852081847085	324.7949878962163	-210.85610192317867	159.9838249780494	279.8498778981224	-212.67994846152885	267.40232843736004	28.281189228085463	-339.1353607803107	287.51249478619224	34.253136912756986	-319.5697823272027	221.01205504556225	45.13119414087707	-284.252376829392	253.2227517083474	57.28502635083646	-266.40828029910045	282.47520709742224	49.15461156880499	-249.00366199291298	-159.02685221803162	28.996357578002932	-330.12592421918055	-166.71813392011003	60.10975914624377	-224.45309304473076	-173.10559939550703	29.71530250927198	-321.0662427154216	-141.67861732466193	28.083503631822616	-340.61460693190435	-142.8033837569917	44.19165238229513	-282.17081527148514	-109.43138184645635	54.67387399835688	-255.29675041179578	
324	10.8	68.85115847154366	1652.5583080735641	-277.3687255533273	37.884886582755755	1483.2335006042028	-405.78932888571575	60.28867066165293	1333.866654288321	-268.37461865970795	213.47870675441533	1303.8683159282782	-280.5289841827084	248.46572741144954	1107.722564185265	-451.57640530353694	106.74880649595437	1287.0963615013236	-481.805734075499	-72.73800996243618	1288.934421629339	-283.2736884329436	-127.78727774101498	1106.6886660507246	-439.1296001582418	-8.404030447957789	1280.2359115663737	-493.63082067498715	157.7490898634889	854.6522009774762	-135.14599608779682	190.36552881362343	474.5663771363696	-267.15798381986355	216.82211126620584	108.76599045572505	-172.53711452128385	-30.732392056677842	844.328832202383	-126.34406480210686	-80.21706793390332	471.84248227616945	-264.1311701947429	-96.34175992246757	104.16779046384083	-168.67227724528163	213.59639441693545	54.23560228897423	-146.58027138194214	-101.378044959186	42.16182130575534	-135.6473309236907	250.04604723795242	32.181239110456616	-361.87662032907707	303.2544604754866	38.154247262228644	-293.37538748070403	-108.3859525102035	42.30422419501526	-360.9885530731502	-183.18701769925323	29.13188786391497	-299.825732520772	-77.57910415109846	882.8636732673112	-182.93008174398062	198.66073018268986	896.5063335615552	-191.90767340673352	107.22988711633843	958.0827405107487	-79.81363564530386	13.125655840182077	950.5169777814575	-80.191167138324	51.6163467590337	1323.8633230485796	-513.2746107062629	66.53036684423446	1364.1374477790862	-481.2650943582103	37.41658723520958	1322.8915627835959	-537.1691166351864	33.42186147227959	1357.936116353864	-497.02352217144704	-129.8071192646122	473.788933895639	-258.7268579839021	104.58484716560496	1269.9927771235139	-505.13911340188565	-147.7431021136395	94.61121276900481	-155.610163357079	184.7876064296769	93.77444979054056	-184.6018806652736	233.91796975290077	467.73721645843415	-259.9072075460679	58.386163874345556	1147.9842714739773	-316.54115732088746	-69.12532480151276	87.9350655671563	-181.96708841838702	148.3044426256838	470.62398871222894	-276.51916765799444	-106.76672322923558	1092.3169335326202	-416.854177346554	55.337496799092285	934.9041974014895	-275.4985351248077	274.19208943199476	1134.4581505611923	-466.91543029197993	115.52622363400141	1289.7801657067398	-451.1580723394094	-16.56417619822248	1266.1978993052346	-519.1782773507425	-154.597905886316	1132.4481970255056	-443.5632148945343	-35.28339445650252	475.987278236092	-284.3544587793951	223.72873511164102	1091.816558295711	-429.10873901252376	264.02485154761524	94.74660369004101	-168.76290389121752	-18.60355785525454	1286.7834681118882	-467.1346352088991	45.08793513780406	1405.9533772985162	-391.3927079736609	64.9446714398392	1207.9175901219085	-132.5719781906495	69.43313697876735	1516.1788978885197	-412.26794695994414	2.2386176254631103	1513.3444464834135	-393.8998011202792	-21.343153941222813	1501.0326186882116	-281.21168415500085	146.07945882612682	1504.796188986842	-324.45289387532324	61.823394626688426	1402.7394481687606	-236.57502692544614	62.80056204060121	1303.6262103736353	-157.74431019744068	75.29049882215222	1058.920777343693	-109.98129770723864	64.40412800097619	1195.434606990615	-142.5801795038264	208.31159682835033	1231.3329001597572	-397.5189173601868	267.1676076144919	1174.9994111187102	-362.4433864756485	-107.21211524935933	1264.9008636739518	-321.327834221821	-99.30833577580653	1131.3049918683892	-369.7351094357378	100.61332147285533	971.1267148201761	-246.22996774066016	58.30828151024985	1057.1568142005692	-323.9364180919303	-0.61943514069146	1190.2163729954498	-331.5081686999274	-6.627797387066016	1002.96326983189	-255.17453687347742	130.6456660111812	1226.6696690748163	-353.8274565142249	157.2135503866767	648.7779749923557	-209.51857960508485	257.1761459271605	615.4472666552042	-202.10194357946628	-17.583481156782973	575.6974429405124	-227.18201417240743	-146.14669062423746	758.8996222354389	-170.1041649481143	-159.11612365168708	195.52799643430606	-193.48772904963263	-40.061801639969815	325.1988261401084	-236.97408944918791	258.3438710798626	323.02926089992656	-222.04047482902692	165.61159895122324	279.0606454902013	-224.7498991418573	269.804627784889	28.602477119012008	-340.1966194365049	289.87658414469485	33.77353291267959	-320.36554382776126	223.37149567437268	46.563542027745726	-285.70362495065166	255.75761964791633	57.53017752593778	-267.41351074400376	284.5313682425641	48.323696135416796	-249.7487825711798	-155.42927076033024	29.869661190442724	-331.79339268043	-165.56197454899794	59.48534704553775	-225.8963375511463	-169.61728995534972	29.869959337823623	-322.8767821089242	-137.95204735245153	29.83517940473498	-342.1061272473781	-140.3816542257642	45.25422598540664	-283.51632990752245	-107.78064253931093	56.91208047651642	-256.1840905318026	
325	10.833333333333334	69.03214395849403	1627.8760947186486	-296.5926871231647	40.60245141264799	1457.256208815961	-423.88078120813304	60.06411508607541	1308.9687832905224	-279.80588071737554	215.3148475411324	1273.9150077258719	-290.41884867501085	244.238254426085	1080.7823725451233	-465.96852704464186	104.59150075843598	1261.8270888586717	-495.8692300529042	-78.79725452824871	1263.9130836187896	-291.58940059299084	-130.65746202897122	1082.5350574048186	-449.53728128091825	-5.503735586710745	1252.0913766972187	-503.6537163422614	156.68054400159681	836.7276493650606	-117.10076026217232	198.52693419003094	470.757223091541	-283.99526302763957	218.36405466594667	108.82314400767385	-174.1171778307479	-31.869329709895712	828.9052840188328	-107.24831448373384	-85.69403898876897	469.4196957292628	-277.8358870778617	-96.79106763901348	104.76750902476483	-170.7717772141116	214.1333197713617	54.3110283679861	-146.77101815058995	-101.09925354495303	42.432873777344724	-136.79516517680574	252.05262002941276	33.853116501467696	-361.9711354970977	304.7434483348588	37.67393310905671	-292.9181924727663	-106.37186485643247	46.200833732859365	-362.15221408890494	-181.1580689672535	29.491853328654667	-301.84107030680593	-78.46091525472691	861.8671631039839	-167.45017829954435	197.87124503171833	872.2512042426371	-177.83643295573356	107.06721256615256	945.6635374960986	-72.5673336315136	12.903995772023723	938.8735254078542	-72.15022620665486	50.00237424304221	1299.352845440055	-527.3895827435692	65.1980610918429	1339.2912667363075	-495.09320740046513	42.54329335266967	1292.827537866357	-546.6265564165518	38.342576214910274	1328.6623788528605	-507.2061876878351	-134.9419566582823	472.531956127446	-271.61043445269	102.35281680932373	1244.8738939126847	-519.3050868676371	-147.7641535808336	95.30893318184796	-156.06379203219853	186.47808117381697	93.69123352782604	-186.39823452126575	241.76886178315254	464.16074417775684	-275.29097086249135	58.55757324729442	1120.9143350025931	-318.6536609657167	-69.8241981375117	88.29701814491474	-184.28098081235748	156.4525846760543	467.273448860896	-293.3301124747916	-110.82582475038424	1067.8117106963691	-426.41728790835344	55.65900599194461	910.1402128372016	-267.05155918994063	270.3861809022586	1107.2772081789906	-481.00955742835777	113.25489276380951	1264.2511009393515	-465.1675227565337	-13.317327845981747	1237.8111119462387	-529.1752391055455	-156.80097245614007	1108.7635074938025	-455.06949834918123	-40.04372634928946	475.2668657367826	-295.759706607803	219.38990657848422	1064.9371824964605	-443.58090989743215	265.2912491994584	94.47619506458926	-168.5592977961842	-16.251647296660384	1259.3550603696372	-477.5640633418013	47.204995072444795	1380.116181300398	-408.47991654303695	64.45674767599475	1189.9511269446205	-137.88088460017067	72.40473656512187	1490.0338914603894	-429.9554809508787	4.779876441123071	1487.6021368458914	-413.17778175876197	-21.53940690513015	1476.5898835824876	-300.96228211069814	146.88405840614905	1479.377811936157	-340.20590239923274	61.40808335833806	1379.3429547263581	-251.47390420646286	62.26650327091615	1284.2830663591535	-167.79863067176072	74.92673952347093	1042.2806482154715	-107.86032182042776	63.96417657684367	1176.984101332795	-147.25610561543644	207.3601759648267	1204.0431592513378	-408.864524077011	265.32303292520805	1145.7038209264983	-375.62879515708727	-112.10719749119232	1240.462360681292	-331.0191501301629	-104.60937692497457	1106.7033949905592	-379.039070696454	100.79465425850483	947.8427870752705	-239.48510754782612	58.62222357665507	1029.8311705494823	-321.5130168074346	-0.4558624573340955	1162.2613916118626	-335.8890275051665	-6.459385709237216	979.0365561159972	-250.3363199199622	130.83107921700648	1197.749726392098	-359.59213330004025	161.05738433924853	638.6042137727829	-210.07232819727278	261.4099122322664	606.2454594296129	-203.68920370980086	-21.56943564843372	569.5074568426262	-230.17385546854607	-147.99807418309368	749.4286600543489	-159.50860097829235	-160.81884834907652	194.94177020569458	-196.69783635632982	-43.838306090864215	323.9253814977382	-247.27747611481828	263.5896974276052	320.46632179276224	-231.0837892364704	170.458708409361	277.3936533409972	-234.43319697864305	271.50813064006627	29.52127086876024	-340.1548640095986	291.515516301668	33.94945585355366	-320.08024055959913	225.02936626401984	48.0176922517031	-285.8802943071661	257.50748124939247	57.944669248741604	-267.1644301120682	285.8707235733906	47.80537627227402	-249.34725435356808	-153.19523650207805	31.70375100800373	-333.5610266414325	-165.13088870326786	59.14630164378233	-227.2671254009283	-167.44355357289214	31.07745115549792	-324.7633541085794	-135.6477614949317	32.42966199231759	-343.72794335237325	-139.04435843120885	46.75315043641909	-284.90860004266517	-107.06415453919905	59.023488178593084	-257.114927843291	
326	10.866666666666667	69.1237990960112	1597.213438345122	-314.6016140693936	42.665911357462335	1426.5392037279066	-442.2414886921907	59.71982194371313	1279.338100034761	-291.1276649431207	212.396891047903	1240.730910729257	-303.674603582999	238.1320281831837	1046.684969705833	-478.7127231522395	101.72998093337962	1229.9586609524072	-509.98080205504823	-80.5382710439606	1235.3756510496178	-302.0278411325303	-135.38386127875407	1053.1900825164123	-458.0258615659045	-3.793227983554109	1218.6213599945638	-509.5795894527809	155.78193312952968	815.3693155542207	-101.41325421476434	204.7571055068897	465.52649777843374	-299.53296039504335	218.31626937753558	107.99140583044226	-175.24382306410587	-32.80999416359753	810.7529347083573	-90.40921169410485	-92.34773527947254	466.92786831411166	-292.0106452056747	-97.59296554523954	105.65241052545632	-173.64842110858268	213.16876021505604	53.5156443790538	-146.61509275939994	-101.06935129270848	43.05353642314356	-138.7349419283186	252.99373418426808	35.2353671261062	-361.6669304819735	305.0083866821737	37.16290075683066	-292.025050072202	-104.90128349960938	50.45356835522818	-364.0310876334869	-179.52208818828908	30.321584180091268	-304.5664835690145	-79.22746795226648	839.1589403159824	-153.0194560300012	197.16877694847963	845.1862759551077	-165.01747397407138	107.67562394737875	928.2512390677125	-65.98458182565189	13.438786782398001	922.6970239881497	-64.73604036805335	47.92105499563201	1268.2734650862992	-541.8910362765372	63.66614684177142	1308.0881223451292	-509.705210127983	46.64799815000266	1257.6234644494575	-551.4022550180357	42.36933142415859	1293.8514918231938	-512.351386047366	-141.16459899938164	471.13898843085593	-284.21960574926476	99.29725587508837	1212.943049807283	-533.3519966220788	-148.06168813668978	96.290178881686	-157.23800873852346	186.59652952403206	92.67494796057268	-187.72495264813017	247.77476050080776	458.9204299042656	-289.9650376183087	58.86029331968617	1089.557624605536	-320.4283061616094	-70.88286378943847	88.96630964715735	-187.40095556835035	162.57833696633736	462.35391934833575	-308.50546013617037	-116.53685926638957	1038.2000517379229	-434.2625629438706	56.48511956579253	881.651185867724	-258.24968881286094	264.7994527438774	1072.6560226622478	-493.75519119799947	110.30783691337867	1232.3694871836096	-479.2540493761952	-11.285196887582865	1204.390077727283	-535.224614632708	-160.498132947031	1080.190757890204	-464.52640347772154	-46.17804574571957	474.3640692875493	-307.95765003325357	212.94469544052254	1031.354885732346	-456.34527728464116	264.94856175276993	93.45723043083848	-167.95865906290842	-15.069678752936758	1226.385383419951	-483.8597469455264	48.98050882183437	1349.4042215141396	-426.69528535958466	64.16873995263529	1167.655696185694	-143.3628177532233	74.57846853862422	1459.29796399854	-447.81967093310857	6.6905265393039235	1456.9085023011246	-432.1338769981433	-21.44120898917752	1445.9694906363952	-320.3517843400757	147.5948270611459	1448.6534527603064	-356.8745554428645	60.79240087161087	1351.057406131288	-266.38454758721207	61.75874628957054	1260.348709400837	-178.0122149472099	75.01834875510202	1021.7234015634414	-105.89981490892173	63.734988512357354	1154.2301841348965	-152.07192990386628	203.41461776924433	1170.7406897861154	-421.97683420291935	260.21323832404283	1111.41675609064	-388.4750065812024	-113.83067509319636	1212.397341807387	-341.74945983117846	-109.94832210978349	1077.6614555798672	-387.40862413461025	101.44879829989937	920.838094986817	-232.5344432735947	59.20447264471777	998.4469430401251	-318.68240021750535	-0.24032681692517238	1129.797806096727	-339.84652020635536	-5.875156927924043	951.1106646350473	-245.15859819432535	130.98945260552148	1164.4510777748428	-365.0539782046834	163.91192381139297	625.9941109712322	-210.89704318465581	264.678864338557	594.6331233858963	-206.31716656508172	-26.35807900519299	562.4571617765044	-234.67144210382023	-150.06773468226456	737.8225147681369	-149.27628848586247	-163.02471566609705	194.5391995113837	-200.49873665088379	-48.51425950822692	322.73416293619056	-258.23023576609654	267.0127956879547	316.8432802185467	-239.21984334593037	173.57449817317826	274.49894592308397	-243.2318660165466	272.13369600661423	30.255041634450215	-339.7103892980937	292.0041252502658	34.04554565538856	-319.37094656061515	225.42646486314482	48.87909296778181	-285.6761286005733	257.87983843705445	57.955277496593496	-266.49129563431086	285.8618601041294	47.058206761445774	-248.51934966237172	-151.42677661765362	33.97085193710876	-336.03558640459767	-164.98143675419863	59.214957746222055	-229.39153767110224	-165.70785228076332	32.7361656006204	-327.3561705022432	-133.8421084242558	35.43477417812532	-346.05773175832013	-138.10841391935284	48.64592667109016	-287.0350375926751	-106.73603264842765	61.47190416018096	-258.80294878492225	
